<?xml version="1.0" standalone="no"?>
<!DOCTYPE svg PUBLIC "-//W3C//DTD SVG 20010904//EN"
 "http://www.w3.org/TR/2001/REC-SVG-20010904/DTD/svg10.dtd">
<svg version="1.0" xmlns="http://www.w3.org/2000/svg"
 width="3200.000000pt" height="3200.000000pt" viewBox="0 0 3200.000000 3200.000000"
 preserveAspectRatio="xMidYMid meet">

<g transform="translate(0.000000,3200.000000) scale(0.100000,-0.100000)"
fill="#000000" stroke="none">
<path d="M15620 27594 c-450 -47 -803 -150 -1216 -354 -392 -194 -652 -379
-960 -685 -212 -211 -316 -329 -420 -476 -266 -376 -447 -763 -563 -1209 -136
-521 -171 -831 -211 -1880 -26 -690 -41 -891 -96 -1355 -33 -283 -55 -414
-129 -790 -89 -449 -145 -666 -292 -1140 -36 -115 -74 -239 -85 -275 -139
-463 -303 -870 -638 -1585 -67 -143 -133 -287 -147 -320 -43 -102 -237 -482
-331 -647 -155 -271 -299 -495 -492 -763 -48 -66 -160 -226 -250 -355 -319
-458 -567 -778 -835 -1075 -711 -792 -1175 -1228 -1820 -1711 -332 -249 -617
-442 -1130 -764 -731 -459 -1080 -713 -1399 -1020 -240 -230 -356 -362 -509
-578 -300 -424 -451 -758 -592 -1307 -217 -850 -127 -1732 256 -2496 472 -942
1331 -1632 2338 -1878 137 -34 370 -74 531 -93 163 -18 677 -15 835 5 453 59
868 176 1315 370 187 81 556 268 840 426 514 287 637 353 890 479 870 435
1758 728 2855 942 687 134 1131 201 1530 229 83 6 213 16 290 22 237 17 1065
23 1342 10 489 -24 903 -68 1392 -147 578 -93 1104 -208 1641 -360 409 -116
972 -314 1350 -477 354 -152 926 -431 1285 -627 512 -280 1041 -531 1342 -636
177 -62 577 -164 778 -199 382 -66 855 -72 1228 -15 696 107 1312 385 1832
829 151 129 247 224 359 356 279 329 456 617 611 995 177 434 259 860 257
1350 -1 335 -33 595 -112 906 -162 631 -427 1137 -861 1645 -425 496 -658 676
-1979 1520 -158 101 -589 395 -740 505 -422 306 -982 786 -1300 1113 -63 66
-185 190 -270 277 -253 259 -692 771 -1002 1169 -306 393 -687 972 -928 1410
-52 94 -122 222 -157 285 -113 204 -342 667 -428 864 -141 326 -212 513 -428
1131 -350 1000 -541 1886 -617 2860 -10 133 -23 488 -40 1165 -15 586 -40 863
-111 1230 -86 441 -232 866 -401 1164 -219 389 -432 680 -668 916 -295 295
-596 516 -913 672 -540 266 -1079 389 -1682 387 -121 -1 -276 -7 -345 -15z
m535 -8655 c334 -40 652 -180 1015 -447 252 -185 587 -519 961 -957 285 -334
641 -822 940 -1285 154 -239 289 -464 394 -655 48 -88 117 -212 153 -275 109
-192 366 -694 452 -885 81 -178 189 -432 260 -615 21 -52 67 -167 102 -255
191 -472 337 -965 410 -1383 31 -178 33 -199 33 -442 0 -224 -3 -267 -22 -355
-28 -129 -91 -306 -143 -400 -132 -239 -389 -468 -701 -625 -396 -200 -1049
-379 -1745 -480 -114 -17 -217 -33 -228 -35 -122 -28 -835 -102 -1111 -115
-390 -18 -1045 -32 -1225 -25 -437 15 -646 26 -785 39 -82 8 -188 18 -235 21
-130 9 -640 73 -805 101 -153 26 -584 114 -708 145 -409 103 -669 194 -939
330 -184 93 -299 167 -423 271 -338 283 -524 617 -574 1033 -14 113 -14 371
-1 506 40 409 144 805 376 1431 46 125 84 230 84 233 0 4 29 81 64 173 399
1038 1236 2474 1902 3266 60 71 156 186 213 255 509 616 918 993 1316 1213
330 183 654 255 970 217z"/>
</g>
</svg>